<?xml version="1.0" standalone="no"?>
<!DOCTYPE svg PUBLIC "-//W3C//DTD SVG 20010904//EN"
 "http://www.w3.org/TR/2001/REC-SVG-20010904/DTD/svg10.dtd">
<svg version="1.0" xmlns="http://www.w3.org/2000/svg"
 width="160.000000pt" height="160.000000pt" viewBox="0 0 160.000000 160.000000"
 preserveAspectRatio="xMidYMid meet">
<metadata>
Created by potrace 1.14, written by Peter Selinger 2001-2017
</metadata>
<g transform="translate(0.000000,160.000000) scale(0.100000,-0.100000)"
fill="#000000" stroke="none">
<path d="M0 800 l0 -800 356 0 c276 0 355 3 352 12 -3 7 -15 15 -29 19 -24 7
-24 7 3 8 18 1 29 -5 33 -19 6 -19 18 -19 446 -20 l439 0 0 800 0 800 -800 0
-800 0 0 -800z m495 442 c-3 -3 -11 0 -18 7 -9 10 -8 11 6 5 10 -3 15 -9 12
-12z m692 -4 c-3 -8 -6 -5 -6 6 -1 11 2 17 5 13 3 -3 4 -12 1 -19z m70 -80
c-3 -8 -6 -5 -6 6 -1 11 2 17 5 13 3 -3 4 -12 1 -19z m-349 -30 c7 -7 12 -9
12 -5 0 4 14 -7 31 -25 18 -18 26 -24 19 -13 -7 11 4 1 24 -23 21 -23 41 -40
46 -37 4 2 16 -5 26 -18 l19 -22 -25 20 -25 20 19 -22 c10 -12 21 -22 25 -21
18 2 32 -3 27 -11 -3 -4 5 -6 18 -4 22 4 63 -17 101 -52 24 -21 43 -62 50
-102 4 -24 11 -43 16 -43 5 0 8 -4 7 -8 -2 -4 17 -38 40 -74 l44 -67 -17 -53
c-28 -85 -51 -123 -92 -150 -60 -41 -336 -198 -348 -198 -6 0 -24 -13 -40 -30
-15 -16 -32 -27 -36 -24 -4 2 -10 0 -14 -6 -3 -5 -34 -10 -68 -10 -51 0 -64 3
-75 20 -12 19 -10 20 78 20 78 0 90 2 90 17 0 20 48 73 67 73 20 0 93 39 91
48 -3 9 43 134 54 147 9 10 -19 -91 -33 -117 -13 -24 -9 -23 74 15 68 32 114
67 88 67 -6 0 -11 5 -11 11 0 7 9 9 22 5 46 -12 128 77 111 120 -4 12 -3 15 6
10 19 -12 -15 62 -47 102 -15 18 -43 56 -63 83 -43 60 -93 113 -133 141 -23
17 -30 18 -37 7 -8 -11 -9 -9 -7 6 2 14 -2 20 -15 19 -10 -1 -16 0 -13 3 7 7
-14 27 -36 36 -10 3 -18 10 -18 15 0 5 -21 25 -46 45 l-46 36 -111 -5 -112 -5
-79 -57 c-102 -72 -339 -301 -331 -319 2 -8 0 -11 -5 -8 -5 3 -3 -10 6 -30 8
-20 17 -57 19 -82 3 -25 15 -63 27 -84 17 -31 28 -39 50 -39 18 0 28 -5 28
-15 0 -8 6 -15 14 -15 7 0 19 -7 26 -15 7 -8 20 -15 29 -15 9 0 42 -14 74 -30
31 -17 57 -27 57 -23 0 4 -7 30 -15 58 -20 65 0 45 23 -25 13 -39 26 -58 48
-69 16 -9 29 -23 28 -31 0 -8 6 -28 14 -43 15 -33 11 -45 -8 -22 -7 8 -17 15
-22 15 -6 0 -24 12 -41 26 -17 14 -92 57 -168 95 -76 37 -147 78 -158 90 -20
22 -65 133 -80 200 -9 41 -2 56 72 133 18 19 27 40 27 61 0 44 88 129 145 139
26 5 70 32 135 81 53 41 107 79 121 84 36 14 212 14 227 -1z m332 -83 c14 -19
14 -19 -2 -6 -10 7 -18 18 -18 24 0 6 1 8 3 6 1 -2 9 -13 17 -24z m-950 -18
c0 -2 -12 -14 -27 -28 l-28 -24 24 28 c23 25 31 32 31 24z m710 -102 c5 3 10
3 10 0 0 -9 -32 -40 -42 -41 -4 -1 -13 -2 -19 -3 -5 0 -7 -7 -3 -13 4 -7 3 -9
-2 -5 -26 24 6 88 33 65 7 -5 17 -7 23 -3z m-362 -9 c5 -3 8 -15 7 -27 -1 -18
-9 -23 -38 -26 -39 -4 -46 4 -24 26 10 11 10 13 0 7 -7 -4 -13 -2 -13 3 0 6 5
11 11 11 5 0 8 4 5 9 -6 9 36 7 52 -3z m257 4 c-3 -5 -11 -10 -16 -10 -6 0 -7
5 -4 10 3 6 11 10 16 10 6 0 7 -4 4 -10z m-56 -87 c0 -25 -1 -25 -8 -8 -5 11
-7 23 -4 28 8 14 13 7 12 -20z m258 5 c-3 -8 -6 -5 -6 6 -1 11 2 17 5 13 3 -3
4 -12 1 -19z m-82 3 c3 -5 1 -12 -5 -16 -5 -3 -10 1 -10 9 0 18 6 21 15 7z
m-908 -143 c-3 -8 -6 -5 -6 6 -1 11 2 17 5 13 3 -3 4 -12 1 -19z m734 -51 c-8
-8 -11 -7 -11 4 0 20 13 34 18 19 3 -7 -1 -17 -7 -23z m-724 1 c-3 -8 -6 -5
-6 6 -1 11 2 17 5 13 3 -3 4 -12 1 -19z m823 -72 c0 -6 -5 -18 -10 -26 -14
-21 -29 3 -22 36 3 19 7 22 18 13 8 -6 14 -17 14 -23z m-180 -6 c0 -5 -4 -10
-10 -10 -5 0 -10 5 -10 10 0 6 5 10 10 10 6 0 10 -4 10 -10z m661 -47 c13 -16
12 -17 -3 -4 -17 13 -22 21 -14 21 2 0 10 -8 17 -17z m-1301 -12 c0 -5 -26
-27 -57 -50 -37 -27 -44 -30 -19 -9 22 18 47 41 55 50 19 20 21 21 21 9z
m1386 -33 c19 -23 19 -23 -1 -7 -11 9 -27 19 -35 22 -13 5 -13 6 1 6 9 1 24
-9 35 -21z m-629 -24 c9 -23 -11 -38 -26 -20 -13 16 -7 36 10 36 5 0 12 -7 16
-16z m673 -35 c15 -28 5 -23 -15 7 -9 15 -12 23 -6 20 6 -4 16 -16 21 -27z
m-691 -36 c-12 -15 -12 -16 4 -10 24 9 21 -7 -8 -40 l-24 -28 -1 28 c0 15 5
27 12 27 6 0 8 3 5 7 -7 6 10 33 20 33 3 0 -1 -8 -8 -17z m721 -13 c6 -11 8
-20 6 -20 -3 0 -10 9 -16 20 -6 11 -8 20 -6 20 3 0 10 -9 16 -20z m-1398 -140
c-1 -2 -37 32 -80 75 l-77 79 80 -74 c44 -41 79 -77 77 -80z m536 114 c2 -28
2 -28 -13 -10 -18 24 -20 49 -2 44 6 -3 13 -18 15 -34z m92 -14 c0 -11 -7 -20
-15 -20 -15 0 -21 21 -8 33 12 13 23 7 23 -13z m730 -15 c0 -2 -18 -14 -40
-25 -22 -11 -40 -18 -40 -15 0 2 17 13 38 24 42 23 42 23 42 16z m-823 -32
c14 -13 18 -43 6 -43 -5 0 -16 14 -25 30 -17 30 -7 37 19 13z m142 -2 c19 -12
6 -41 -19 -41 -21 0 -24 8 -14 34 7 18 13 19 33 7z m-51 -26 c1 -16 -3 -25
-13 -25 -10 0 -14 9 -13 25 1 14 7 25 13 25 6 0 12 -11 13 -25z m642 10 c0 -6
-76 -45 -87 -45 -4 1 12 12 37 25 50 27 50 27 50 20z m-1223 -41 c-3 -3 -12
-4 -19 -1 -8 3 -5 6 6 6 11 1 17 -2 13 -5z m46 -11 c-7 -2 -19 -2 -25 0 -7 3
-2 5 12 5 14 0 19 -2 13 -5z m1064 1 c-3 -3 -12 -4 -19 -1 -8 3 -5 6 6 6 11 1
17 -2 13 -5z m-997 -14 c20 -6 21 -8 5 -8 -11 0 -29 3 -40 8 -25 11 1 11 35 0z
m943 3 c-7 -2 -19 -2 -25 0 -7 3 -2 5 12 5 14 0 19 -2 13 -5z m-56 -9 c-3 -3
-12 -4 -19 -1 -8 3 -5 6 6 6 11 1 17 -2 13 -5z m-830 -10 c-3 -3 -12 -4 -19
-1 -8 3 -5 6 6 6 11 1 17 -2 13 -5z m531 -14 c-11 -17 -10 -22 1 -30 13 -7 13
-12 1 -37 l-14 -28 -4 34 c-4 41 5 81 18 81 6 0 5 -9 -2 -20z m259 14 c-3 -3
-12 -4 -19 -1 -8 3 -5 6 6 6 11 1 17 -2 13 -5z m-702 -24 c13 -5 14 -9 5 -9
-8 0 -24 4 -35 9 -13 5 -14 9 -5 9 8 0 24 -4 35 -9z m622 4 c-3 -3 -12 -4 -19
-1 -8 3 -5 6 6 6 11 1 17 -2 13 -5z m-40 -10 c-3 -3 -12 -4 -19 -1 -8 3 -5 6
6 6 11 1 17 -2 13 -5z m-485 -30 c14 -7 28 -17 30 -21 6 -11 1 8 -8 32 -7 18
-6 19 10 6 9 -8 16 -24 15 -35 -2 -12 3 -32 10 -46 l12 -25 -21 24 c-11 13
-24 30 -28 37 -4 7 -27 22 -52 33 -25 12 -34 18 -20 15 14 -4 37 -13 52 -20z
m438 16 c-8 -5 -19 -10 -25 -10 -5 0 -3 5 5 10 8 5 20 10 25 10 6 0 3 -5 -5
-10z m-70 -50 c-17 -22 -37 -43 -43 -47 -6 -4 6 14 27 40 21 26 40 47 43 47 3
0 -10 -18 -27 -40z m-77 3 c7 -38 -8 -51 -33 -28 -28 26 -26 55 4 55 18 0 25
-7 29 -27z m-88 -3 c3 -5 1 -10 -4 -10 -6 0 -11 5 -11 10 0 6 2 10 4 10 3 0 8
-4 11 -10z m4 -57 c0 -25 -1 -26 -9 -8 -12 27 -12 35 0 35 6 0 10 -12 9 -27z
m46 18 c3 -5 1 -12 -5 -16 -5 -3 -10 1 -10 9 0 18 6 21 15 7z m35 -24 c-27
-15 -36 -14 -25 2 3 6 16 11 28 11 21 0 21 -1 -3 -13z"/>
</g>
</svg>
